<?xml version="1.0" encoding="UTF-8" standalone="no"?>
<!DOCTYPE svg PUBLIC "-//W3C//DTD SVG 1.1//EN" "http://www.w3.org/Graphics/SVG/1.1/DTD/svg11.dtd">
<svg width="100%" height="100%" viewBox="0 0 1140 360" version="1.1" xmlns="http://www.w3.org/2000/svg" xmlns:xlink="http://www.w3.org/1999/xlink" xml:space="preserve" xmlns:serif="http://www.serif.com/" style="fill-rule:evenodd;clip-rule:evenodd;stroke-linejoin:round;stroke-miterlimit:1.41421;">
    <rect x="0" y="0" width="1140" height="360" style="fill:rgb(145,206,230);"/>
    <g transform="matrix(1.10196,0,0,1.10196,-119.692,-115.245)">
        <g>
            <text x="256.333px" y="163.491px" style="font-family:'Cambria-Bold', 'Cambria', serif;font-weight:700;font-size:20px;fill:rgb(48,48,48);">При заказе курс<tspan x="410.502px 421.889px " y="163.491px 163.491px ">ов</tspan>ой и дипломной рабо<tspan x="638.647px 649.067px " y="163.491px 163.491px ">ты</tspan> или магист<tspan x="777.573px 788.188px " y="163.491px 163.491px ">ер</tspan>ск<tspan x="820.854px 832.241px " y="163.491px 163.491px ">ой</tspan> дис<tspan x="883.071px 892.329px 902.944px 914.741px 925.161px " y="163.491px 163.491px 163.491px 163.491px 163.491px ">серта</tspan>ции</text>
            <text x="394.716px" y="183.491px" style="font-family:'Cambria-Bold', 'Cambria', serif;font-weight:700;font-size:20px;fill:rgb(48,48,48);">по<tspan x="417.148px 429.101px " y="183.491px 183.491px ">дб</tspan>ор т<tspan x="478.212px 488.828px " y="183.491px 183.491px ">ем</tspan>ы и с<tspan x="549.638px 561.025px " y="183.491px 183.491px ">ос</tspan>тавление плана бесплатно!</text>
        </g>
    </g>
    <g id="Caculator">
        <path d="M838,224C838,204.131 821.869,188 802,188L736,188C716.131,188 700,204.131 700,224L700,290C700,309.869 716.131,326 736,326L802,326C821.869,326 838,309.869 838,290L838,224Z" style="fill-opacity:0.501961;"/>
        <path d="M782.054,283.297C779.115,283.297 776.732,280.894 776.732,277.931C776.732,274.968 779.115,272.566 782.054,272.566C784.993,272.566 787.376,274.968 787.376,277.931C787.376,280.894 784.993,283.297 782.054,283.297ZM781.458,259.74C784.397,259.74 786.78,262.142 786.78,265.105C786.78,268.068 784.397,270.47 781.458,270.47C778.518,270.47 776.136,268.068 776.136,265.105C776.136,262.142 778.518,259.74 781.458,259.74ZM768.685,257.444C765.746,257.444 763.363,255.042 763.363,252.078C763.363,249.116 765.746,246.713 768.685,246.713C771.624,246.713 774.007,249.116 774.007,252.078C774.007,255.042 771.624,257.444 768.685,257.444ZM768.685,270.47C765.746,270.47 763.363,268.068 763.363,265.105C763.363,262.142 765.746,259.74 768.685,259.74C771.624,259.74 774.007,262.142 774.007,265.105C774.007,268.068 771.624,270.47 768.685,270.47ZM774.007,278.332C774.007,281.295 771.624,283.697 768.685,283.697L756.024,283.697C753.085,283.697 750.702,281.295 750.702,278.332C750.702,275.369 753.085,272.967 756.024,272.967L768.685,272.967C771.624,272.967 774.007,275.369 774.007,278.332ZM755.912,259.74C758.851,259.74 761.234,262.142 761.234,265.105C761.234,268.068 758.851,270.47 755.912,270.47C752.973,270.47 750.59,268.068 750.59,265.105C750.59,262.142 752.973,259.74 755.912,259.74ZM755.912,246.713C758.851,246.713 761.234,249.116 761.234,252.078C761.234,255.042 758.851,257.444 755.912,257.444C752.973,257.444 750.59,255.042 750.59,252.078C750.59,249.116 752.973,246.713 755.912,246.713ZM786.78,252.078C786.78,255.042 784.397,257.444 781.458,257.444C778.518,257.444 776.136,255.042 776.136,252.078C776.136,249.116 778.518,246.713 781.458,246.713C784.397,246.713 786.78,249.116 786.78,252.078ZM751.687,242.108L785.483,242.108L785.483,229.683L751.687,229.683L751.687,242.108ZM784.003,224L753.397,224C749.312,224 746,227.338 746,231.457L746,280.542C746,284.661 749.312,288 753.397,288L784.003,288C788.088,288 791.4,284.661 791.4,280.542L791.4,231.457C791.4,227.338 788.088,224 784.003,224Z" style="fill:white;"/>
    </g>
    <path id="Calendar" d="M719.544,124.094C720.386,124.109 721.226,124.152 722.063,124.239C723.997,124.442 725.905,124.853 727.734,125.464C731.29,126.653 734.528,128.597 737.141,131.098C739.55,133.403 741.418,136.171 742.579,139.175C743.192,140.764 743.609,142.415 743.819,144.089C743.915,144.853 743.962,145.619 743.978,146.387C744.119,166.156 744.119,185.926 743.978,205.695C743.962,206.463 743.915,207.229 743.819,207.993C743.609,209.666 743.192,211.318 742.579,212.906C741.418,215.911 739.55,218.678 737.141,220.984C734.528,223.485 731.29,225.428 727.734,226.617C725.905,227.229 723.997,227.64 722.063,227.842C721.226,227.93 720.386,227.973 719.544,227.988C697.876,228.113 676.208,228.113 654.54,227.988C653.698,227.973 652.858,227.93 652.021,227.842C650.086,227.64 648.179,227.229 646.35,226.617C643.167,225.553 640.236,223.884 637.782,221.75C634.968,219.302 632.798,216.253 631.505,212.906C630.891,211.318 630.475,209.666 630.265,207.993C630.169,207.229 630.122,206.463 630.106,205.695C629.965,185.926 629.965,166.156 630.106,146.387C630.122,145.619 630.169,144.853 630.265,144.089C630.475,142.416 630.891,140.764 631.505,139.175C632.798,135.829 634.968,132.78 637.782,130.332C640.236,128.198 643.167,126.529 646.35,125.464C648.179,124.853 650.086,124.441 652.021,124.239C652.858,124.152 653.698,124.109 654.54,124.094C676.208,123.969 697.876,123.969 719.544,124.094ZM739.083,155.713L635.001,155.713C634.919,172.354 634.938,188.996 635.057,205.637C635.071,206.329 635.119,207.019 635.214,207.706C635.39,208.965 635.712,210.207 636.175,211.404C637.209,214.082 638.947,216.521 641.199,218.48C643.162,220.188 645.507,221.524 648.054,222.376C649.515,222.864 651.039,223.193 652.584,223.354C653.255,223.424 653.928,223.459 654.603,223.471C676.228,223.595 697.855,223.595 719.481,223.471C720.156,223.459 720.829,223.424 721.5,223.354C723.045,223.193 724.569,222.864 726.03,222.376C728.876,221.424 731.466,219.868 733.558,217.867C735.485,216.022 736.98,213.808 737.909,211.404C738.399,210.135 738.732,208.816 738.9,207.479C738.976,206.867 739.014,206.253 739.027,205.637C739.146,188.996 739.164,172.354 739.083,155.713ZM647.433,203.145C650.165,203.145 652.384,205.169 652.384,207.662C652.384,210.155 650.165,212.179 647.433,212.179C644.7,212.179 642.482,210.155 642.482,207.662C642.482,205.169 644.7,203.145 647.433,203.145ZM706.847,203.145C709.579,203.145 711.798,205.169 711.798,207.662C711.798,210.155 709.579,212.179 706.847,212.179C704.114,212.179 701.895,210.155 701.895,207.662C701.895,205.169 704.114,203.145 706.847,203.145ZM667.237,203.145C669.97,203.145 672.188,205.169 672.188,207.662C672.188,210.155 669.97,212.179 667.237,212.179C664.505,212.179 662.286,210.155 662.286,207.662C662.286,205.169 664.505,203.145 667.237,203.145ZM726.651,203.145C729.384,203.145 731.602,205.169 731.602,207.662C731.602,210.155 729.384,212.179 726.651,212.179C723.918,212.179 721.7,210.155 721.7,207.662C721.7,205.169 723.918,203.145 726.651,203.145ZM687.042,203.145C689.775,203.145 691.993,205.169 691.993,207.662C691.993,210.155 689.775,212.179 687.042,212.179C684.309,212.179 682.091,210.155 682.091,207.662C682.091,205.169 684.309,203.145 687.042,203.145ZM706.847,180.558C712.312,180.558 716.749,184.606 716.749,189.593C716.749,194.579 712.312,198.627 706.847,198.627C701.381,198.627 696.944,194.579 696.944,189.593C696.944,184.606 701.381,180.558 706.847,180.558ZM667.237,185.075C669.97,185.075 672.188,187.1 672.188,189.593C672.188,192.086 669.97,194.11 667.237,194.11C664.505,194.11 662.286,192.086 662.286,189.593C662.286,187.1 664.505,185.075 667.237,185.075ZM726.651,185.075C729.384,185.075 731.602,187.1 731.602,189.593C731.602,192.086 729.384,194.11 726.651,194.11C723.918,194.11 721.7,192.086 721.7,189.593C721.7,187.1 723.918,185.075 726.651,185.075ZM647.433,185.075C650.165,185.075 652.384,187.1 652.384,189.593C652.384,192.086 650.165,194.11 647.433,194.11C644.7,194.11 642.482,192.086 642.482,189.593C642.482,187.1 644.7,185.075 647.433,185.075ZM687.042,185.075C689.775,185.075 691.993,187.1 691.993,189.593C691.993,192.086 689.775,194.11 687.042,194.11C684.309,194.11 682.091,192.086 682.091,189.593C682.091,187.1 684.309,185.075 687.042,185.075ZM667.237,167.006C669.97,167.006 672.188,169.03 672.188,171.524C672.188,174.017 669.97,176.041 667.237,176.041C664.505,176.041 662.286,174.017 662.286,171.524C662.286,169.03 664.505,167.006 667.237,167.006ZM726.651,167.006C729.384,167.006 731.602,169.03 731.602,171.524C731.602,174.017 729.384,176.041 726.651,176.041C723.918,176.041 721.7,174.017 721.7,171.524C721.7,169.03 723.918,167.006 726.651,167.006ZM706.847,167.006C709.579,167.006 711.798,169.03 711.798,171.524C711.798,174.017 709.579,176.041 706.847,176.041C704.114,176.041 701.895,174.017 701.895,171.524C701.895,169.03 704.114,167.006 706.847,167.006ZM647.433,167.006C650.165,167.006 652.384,169.03 652.384,171.524C652.384,174.017 650.165,176.041 647.433,176.041C644.7,176.041 642.482,174.017 642.482,171.524C642.482,169.03 644.7,167.006 647.433,167.006ZM687.042,167.006C689.775,167.006 691.993,169.03 691.993,171.524C691.993,174.017 689.775,176.041 687.042,176.041C684.309,176.041 682.091,174.017 682.091,171.524C682.091,169.03 684.309,167.006 687.042,167.006Z" style="fill:rgb(240,188,7);"/>
    <path id="Attach--small-" serif:id="Attach (small)" d="M853.3,178.324C853.3,175.624 851.988,172.924 849.738,171.018C847.489,169.112 844.49,168 841.116,168C837.741,168 834.93,169.112 832.493,171.018L819.184,182.294L808.686,191.188C805.687,193.729 804,197.065 804,200.559C804,204.053 805.687,207.388 808.686,209.929C811.686,212.471 815.622,213.9 819.746,213.9C823.87,213.9 827.806,212.471 830.806,209.929L845.614,197.382L843.552,195.635L828.744,208.182C826.307,210.247 823.12,211.359 819.559,211.359C815.997,211.359 812.81,210.247 810.373,208.182C807.937,206.118 806.624,203.418 806.624,200.4C806.624,197.382 807.937,194.682 810.373,192.618L820.871,183.724L821.246,183.406L825.182,180.071L834.18,172.447C836.054,170.859 838.304,170.224 840.741,170.224C843.178,170.224 845.614,171.018 847.489,172.606C851.051,175.624 851.051,180.706 847.489,183.724L834.18,195L824.057,203.418C821.995,205.165 818.434,205.165 816.372,203.418C815.435,202.624 814.872,201.353 814.872,200.241C814.872,199.129 815.435,197.859 816.372,196.906L830.806,184.676L828.744,182.929L814.31,195.159C812.81,196.429 811.873,198.176 811.873,200.082C811.873,201.988 812.81,203.735 814.31,205.006C815.81,206.276 817.871,207.071 820.121,207.071C822.37,207.071 824.432,206.276 825.932,205.006L840.366,192.776L849.363,185.153C851.988,183.724 853.3,181.024 853.3,178.324Z" style="fill:rgb(240,188,7);fill-rule:nonzero;stroke:white;stroke-width:0.31px;"/>
</svg>
