<?xml version="1.0" encoding="UTF-8" standalone="no"?>
<!DOCTYPE svg PUBLIC "-//W3C//DTD SVG 1.1//EN" "http://www.w3.org/Graphics/SVG/1.1/DTD/svg11.dtd">
<svg width="100%" height="100%" viewBox="0 0 356 85" version="1.1" xmlns="http://www.w3.org/2000/svg" xmlns:xlink="http://www.w3.org/1999/xlink" xml:space="preserve" xmlns:serif="http://www.serif.com/" style="fill-rule:evenodd;clip-rule:evenodd;stroke-linejoin:round;stroke-miterlimit:1.41421;">
    <g id="Layer-1" serif:id="Layer 1">
        <path id="path10" d="M95.813,18.675C95.813,25.89 91.752,32.653 83.596,38.931C75.687,45.001 67.531,48.019 59.163,48.019C58.245,48.019 57.362,48.019 56.55,48.019C51.854,57.974 45.464,66.471 37.449,73.513C29.081,80.866 21.101,84.543 13.546,84.543C9.485,84.543 6.519,83.71 4.648,82.045C4.295,81.178 4.719,80.727 5.884,80.658C8.108,81.906 10.403,82.531 12.875,82.531C17.465,82.531 22.125,80.935 26.786,77.744C31.482,74.553 35.86,70.044 39.92,64.286C42.71,60.298 46.135,54.401 50.23,46.632C44.546,44.516 41.686,40.666 41.686,35.047C41.686,28.803 44.687,23.496 50.654,19.091C54.891,15.935 58.916,14.097 62.694,13.507C63.153,13.577 63.471,13.75 63.647,14.027C63.824,14.27 63.753,14.478 63.471,14.721C60.434,15.449 57.151,17.392 53.62,20.548C48.5,24.988 45.958,30.087 45.958,35.81C45.958,40.388 47.688,43.406 51.113,44.897C53.196,41.013 55.279,37.093 57.292,33.139C59.552,28.977 61.493,25.682 63.047,23.288C65.907,18.953 68.59,15.38 71.168,12.571C73.569,9.9 75.193,8.547 76.04,8.547C76.923,8.547 77.347,8.79 77.347,9.241C76.64,10.108 75.864,10.975 74.981,11.877C72.368,15.033 66.507,26.375 57.362,46.007L58.139,46.007C65.766,46.111 73.074,42.678 80.136,35.636C86.809,28.942 90.163,22.525 90.163,16.351C90.163,7.957 84.373,3.761 72.792,3.761C61.034,3.761 49.63,6.362 38.508,11.565C28.092,16.421 19.619,22.803 13.051,30.711C6.484,38.619 3.2,46.527 3.2,54.47C3.2,56.413 3.448,58.355 3.977,60.228C4.083,60.957 3.765,61.338 3.024,61.338C2.741,61.338 2.459,61.268 2.247,61.165C1.364,59.292 0.941,56.066 0.941,51.557C0.941,42.122 4.648,33.347 12.098,25.3C18.771,18.086 27.598,12.293 38.543,7.888C49.065,3.691 59.446,1.61 69.685,1.61C87.127,1.61 95.848,7.264 95.848,18.606L95.813,18.675ZM108.1,43.406C108.1,47.117 105.911,50.447 101.568,53.43C98.072,55.719 94.895,57.002 91.964,57.28C91.258,59.118 90.905,60.506 90.905,61.477C90.905,63.489 91.964,64.46 94.118,64.46C95.848,64.46 97.825,63.697 100.049,62.136C101.78,60.887 103.121,59.639 104.075,58.355C104.816,57.939 105.31,58.216 105.487,59.118C104.498,60.506 103.121,61.824 101.391,63.142C98.672,65.084 95.989,66.055 93.376,66.055C88.892,66.055 86.668,63.87 86.668,59.534C86.668,55.129 88.61,50.69 92.529,46.215C96.413,41.741 100.085,39.486 103.51,39.486C106.581,39.486 108.135,40.77 108.135,43.336L108.1,43.406ZM104.428,42.886C104.428,41.81 104.004,41.255 103.227,41.255C101.991,41.255 100.261,42.851 98.037,46.042C95.954,48.886 94.153,52.008 92.67,55.372C95.283,55.268 97.86,53.777 100.508,50.932C103.157,48.088 104.463,45.383 104.463,42.886L104.428,42.886ZM130.237,29.532L124.659,41.082L128.684,41.082C129.496,41.082 129.92,41.463 129.92,42.192C129.92,42.92 129.496,43.302 128.719,43.302L123.6,43.302L115.444,60.367C114.985,61.338 114.737,62.171 114.737,62.864C114.737,64.009 115.161,64.564 116.044,64.564C117.597,64.564 119.822,62.968 122.682,59.777C123.317,59.534 123.776,59.707 124.094,60.194C121.305,64.148 118.268,66.09 115.02,66.09C111.63,66.09 109.971,64.703 109.971,61.962C109.971,60.922 110.218,59.847 110.748,58.702L118.303,43.302L114.596,43.302C113.819,43.302 113.431,42.92 113.431,42.192C113.431,41.463 113.819,41.082 114.596,41.082L119.363,41.082L124.871,29.497C125.4,28.422 126.424,27.867 127.907,27.867C129.461,27.867 130.273,28.214 130.273,28.907C130.273,29.081 130.273,29.289 130.273,29.532L130.237,29.532ZM146.408,58.98C145.596,60.367 144.502,61.72 143.125,63.107C141.006,65.119 138.994,66.09 137.087,66.09C135.816,66.09 134.757,65.674 133.874,64.876C132.991,64.078 132.532,63.038 132.532,61.789C132.532,60.298 134.157,56.725 137.405,51.071C140.088,46.458 141.43,43.857 141.43,43.371C141.43,42.643 141.077,42.261 140.371,42.261C139.559,42.261 138.711,42.886 137.829,44.134C136.275,46.319 135.251,47.603 134.792,48.088C134.721,48.157 134.651,48.157 134.545,48.157C134.263,48.157 133.945,48.019 133.627,47.776C133.309,47.533 133.168,47.256 133.239,46.978C134.863,44.932 135.781,43.614 136.028,43.024C135.145,41.324 134.722,39.798 134.722,38.48C134.722,35.671 135.781,34.283 137.864,34.283C139.771,34.283 140.759,35.289 140.759,37.266C140.759,38.688 140.583,39.694 140.23,40.249L140.477,40.492C142.348,39.798 143.584,39.451 144.219,39.451C145.667,39.451 146.408,40.492 146.408,42.538C146.408,43.787 145.879,45.417 144.855,47.394C144.784,47.568 143.725,49.51 141.642,53.221C140.547,55.094 139.453,56.967 138.429,58.806C137.37,60.679 136.875,61.962 136.875,62.76C136.875,63.627 137.228,64.043 137.899,64.043C138.958,64.043 140.477,63.141 142.348,61.338C143.619,60.193 144.714,58.979 145.702,57.696C146.373,57.869 146.656,58.251 146.479,58.91L146.408,58.98ZM215.682,40.631C215.682,40.458 215.258,41.186 214.446,42.782C213.211,45.175 211.586,48.643 209.574,53.152C207.032,58.806 205.725,62.066 205.725,62.934C205.725,63.801 206.255,64.217 207.279,64.217C209.362,64.217 211.48,62.379 213.634,58.737C214.729,58.39 215.294,58.563 215.294,59.257C214.482,60.679 213.387,62.066 212.081,63.385C210.033,65.258 208.126,66.229 206.326,66.229C203.007,66.229 201.347,64.945 201.347,62.379C201.347,60.54 202.265,57.592 204.066,53.465C205.337,50.62 206.467,48.366 207.455,46.701L207.102,46.285C205.69,47.083 202.901,50.135 198.628,55.442C195.91,58.91 193.685,61.824 191.991,64.182C191.179,65.396 189.978,65.986 188.425,65.986C187.718,65.986 187.365,65.639 187.365,64.945C187.365,64.841 188.954,61.407 192.167,54.713C194.956,48.817 196.369,45.314 196.369,44.204C196.369,43.128 195.945,42.573 195.133,42.573C194.851,42.573 193.721,42.92 191.743,43.614C191.108,43.371 190.896,42.92 191.143,42.227C193.368,40.596 195.733,39.764 198.311,39.764C199.123,39.764 199.864,40.041 200.535,40.562C201.206,41.117 201.524,41.88 201.524,42.851C201.524,44.62 200.041,48.47 197.075,54.332L197.428,54.505C199.123,52.216 201.453,49.58 204.419,46.562C207.385,43.579 209.503,41.672 210.774,40.909C212.045,40.145 213.352,39.764 214.693,39.764C215.329,39.764 215.647,40.076 215.647,40.7L215.682,40.631ZM243.681,53.985C242.692,54.956 241.598,55.442 240.362,55.442C240.186,55.442 239.938,55.442 239.585,55.442C237.891,58.425 235.737,60.991 233.124,63.038C230.511,65.119 228.11,66.125 225.886,66.125C221.402,66.125 219.178,63.939 219.178,59.534C219.178,54.783 221.084,50.239 224.933,45.868C228.781,41.498 233.089,39.313 237.855,39.313C238.667,39.313 239.091,39.486 239.091,39.833C239.091,40.388 238.667,40.7 237.855,40.7C234.607,40.7 231.323,43.51 228.004,49.094C224.968,54.228 223.485,58.563 223.485,62.032C223.485,63.87 224.368,64.772 226.098,64.772C227.651,64.772 229.487,63.731 231.535,61.616C233.583,59.5 235.348,57.002 236.796,54.158C234.925,52.771 234.007,50.863 234.007,48.4C234.007,46.215 234.501,44.55 235.49,43.336C236.372,42.296 237.326,41.81 238.385,41.81C240.892,41.81 242.128,43.441 242.128,46.701C242.128,48.99 241.527,51.383 240.292,53.916C240.715,53.986 240.927,53.986 240.998,53.986C241.704,53.986 242.41,53.673 243.187,53.049C243.752,53.153 243.928,53.465 243.716,53.986L243.681,53.985ZM239.232,46.285C239.232,44.342 238.809,43.371 237.997,43.371C236.937,43.371 236.443,44.967 236.443,48.158C236.443,50.204 236.831,51.696 237.573,52.597C238.667,50.1 239.232,47.984 239.232,46.25L239.232,46.285ZM284.25,40.631C284.25,40.458 283.826,41.186 283.014,42.782C281.778,45.175 280.154,48.643 278.141,53.152C275.599,58.806 274.293,62.066 274.293,62.934C274.293,63.801 274.822,64.217 275.846,64.217C277.93,64.217 280.048,62.379 282.202,58.737C283.261,58.39 283.791,58.563 283.861,59.257C283.049,60.679 281.955,62.066 280.542,63.385C278.565,65.258 276.658,66.229 274.858,66.229C271.539,66.229 269.879,64.945 269.879,62.379C269.879,60.54 270.797,57.592 272.598,53.465C273.834,50.62 274.928,48.366 275.917,46.701L275.67,46.285C274.222,47.083 271.398,50.169 267.196,55.511C265.042,58.321 263.03,61.407 261.194,64.737C260.841,65.466 259.464,65.986 256.992,66.263C256.18,66.367 255.756,66.229 255.756,65.847C255.756,65.57 257.098,62.656 259.781,57.141C262.677,51.245 264.301,47.811 264.654,46.909L264.301,46.493C262.888,47.221 260.099,50.308 255.827,55.754C253.108,59.222 250.884,62.101 249.189,64.494C249.013,64.841 248.483,65.223 247.636,65.674C246.753,66.09 245.976,66.333 245.27,66.333C244.564,66.333 244.211,65.986 244.211,65.292C244.211,64.876 245.8,61.477 249.013,55.06C251.872,49.302 253.285,45.66 253.285,44.238C253.285,43.128 252.861,42.608 252.049,42.608C251.943,42.608 250.919,42.955 249.013,43.649C248.765,43.649 248.589,43.475 248.448,43.094C248.306,42.712 248.271,42.435 248.412,42.261C250.495,40.666 252.79,39.903 255.297,39.903C257.628,39.903 258.793,40.909 258.793,42.92C258.793,44.759 257.275,48.678 254.273,54.644L254.626,54.714C256.321,52.39 258.652,49.754 261.617,46.736C264.583,43.719 266.702,41.846 267.973,41.048C269.244,40.25 270.691,39.869 272.245,39.869C273.057,39.869 273.481,40.111 273.481,40.562C273.481,40.493 273.057,41.291 272.245,42.921L267.267,52.91C272.28,46.806 276.27,42.852 279.307,41.083C280.578,40.285 281.849,39.869 283.155,39.869C283.861,39.869 284.214,40.181 284.214,40.805L284.25,40.631ZM306.423,30.954C306.423,31.994 306.07,32.931 305.328,33.833C304.587,34.735 303.704,35.151 302.68,35.151C300.703,35.151 299.714,34.041 299.714,31.821C299.714,30.78 300.067,29.844 300.809,28.942C301.55,28.04 302.433,27.624 303.457,27.624C305.434,27.624 306.423,28.734 306.423,30.954ZM302.751,40.909C300.844,44.689 298.938,48.435 297.066,52.216C294.03,58.321 292.547,61.893 292.547,62.934C292.547,63.662 292.865,64.044 293.5,64.044C294.383,64.044 295.689,63.315 297.419,61.893C298.867,60.748 299.962,59.708 300.738,58.737C300.915,58.667 301.162,58.737 301.444,58.945C301.727,59.153 301.868,59.396 301.798,59.673C300.985,60.818 299.856,62.032 298.408,63.28C296.078,65.223 293.959,66.194 292.053,66.194C289.157,66.194 287.674,64.807 287.674,62.066C287.674,60.922 289.051,57.384 291.77,51.453C292.865,49.233 294.171,46.527 295.619,43.302C295.866,42.678 295.654,42.365 295.018,42.365C293.747,42.365 293.112,41.949 293.112,41.082C293.112,40.215 293.606,39.833 294.595,39.868C297.102,40.041 299.467,39.938 301.762,39.521C302.186,39.452 302.504,39.555 302.716,39.833C302.963,40.076 302.963,40.458 302.786,40.909L302.751,40.909ZM326.654,44.169C326.654,45.591 326.23,46.701 325.383,47.464C324.536,48.227 323.653,48.609 322.735,48.609C321.005,48.609 320.122,47.811 320.122,46.146C320.122,45.348 320.581,44.62 321.464,43.891C322.382,43.198 322.806,42.678 322.806,42.331C322.806,41.776 322.523,41.498 321.923,41.498C319.946,41.498 317.545,44.412 314.685,50.239C312.072,55.719 310.766,59.743 310.766,62.309C310.766,63.558 311.331,64.182 312.425,64.182C313.873,64.182 315.673,63.246 317.827,61.407C319.628,59.881 320.864,58.563 321.57,57.419C321.852,57.315 322.17,57.385 322.488,57.627C322.806,57.87 322.982,58.216 322.982,58.598C321.923,60.02 320.581,61.442 318.886,62.899C316.344,65.084 313.873,66.159 311.542,66.159C307.765,66.159 305.858,63.801 305.858,59.049C305.858,54.921 307.694,50.655 311.401,46.181C315.109,41.741 318.71,39.486 322.276,39.486C325.171,39.486 326.654,41.013 326.654,44.1L326.654,44.169ZM355.783,40.562C355.783,40.735 355.606,41.082 355.253,41.602C355.147,41.776 353.594,45.244 350.628,51.973C348.015,57.904 346.709,61.512 346.709,62.76C346.709,63.627 347.062,64.044 347.768,64.044C349.11,64.044 351.299,62.205 354.406,58.563C354.653,58.493 354.9,58.597 355.147,58.806C355.395,59.049 355.5,59.292 355.465,59.569C352.323,63.974 349.074,66.159 345.685,66.159C342.966,66.159 341.589,64.807 341.589,62.136C341.589,61.234 342.048,59.534 343.002,57.072C338.235,63.142 334.422,66.159 331.562,66.159C328.596,66.159 327.113,64.356 327.113,60.748C327.113,55.684 329.655,50.863 334.704,46.25C339.577,41.81 344.626,39.625 349.781,39.625C352.393,39.625 354.3,39.799 355.465,40.145C355.712,40.249 355.818,40.388 355.818,40.562L355.783,40.562ZM348.368,43.406C348.368,42.365 347.945,41.845 347.133,41.845C344.732,41.845 341.519,44.585 337.494,50.135C333.468,55.65 331.421,59.777 331.421,62.483C331.421,63.523 331.88,64.044 332.833,64.044C334.351,64.044 337.388,61.199 341.978,55.476C344.061,52.84 345.65,50.447 346.744,48.331C347.803,46.181 348.368,44.55 348.368,43.406Z" style="fill:rgb(21,34,67);fill-rule:nonzero;stroke:black;stroke-width:0.96px;"/>
        <path id="path12" d="M145.243,25.265L168.476,15.623L191.708,25.265L181.257,29.601C179.033,27.312 175.784,25.578 172.006,24.815C171.583,24.745 171.159,24.641 170.735,24.606C170.488,24.78 170.347,25.023 170.347,25.335C170.347,25.543 170.418,25.751 170.559,25.924C170.947,25.994 171.336,26.063 171.689,26.133C174.937,26.826 177.726,28.318 179.668,30.295C179.704,30.329 179.739,30.364 179.774,30.399L179.774,38.931C178.574,39.486 177.469,39.126 176.162,39.473C174.609,39.924 174.173,37.787 172.514,37.925C171.702,37.717 170.074,37.682 169.12,37.682C168.167,37.682 165.436,37.951 164.589,38.159C162.894,37.985 162.438,40.77 160.885,40.319C159.543,39.937 158.272,39.486 157.071,38.931L157.071,30.225L148.668,26.757L148.668,27.659C149.233,27.901 149.621,28.456 149.621,29.081C149.621,29.74 149.233,30.26 148.668,30.503L150.151,38.03L145.949,38.03L147.468,30.538C146.867,30.295 146.444,29.74 146.444,29.081C146.444,28.422 146.832,27.901 147.397,27.659L147.397,26.271L145.137,25.335L145.243,25.265Z" style="fill:rgb(209,49,4);"/>
        <path id="path16" d="M156.895,39.14C153.752,42.296 152.199,46.146 152.199,50.724C152.199,55.268 153.752,59.118 156.895,62.309C160.037,65.5 164.027,67.061 168.793,67.061C173.56,67.061 177.479,65.5 180.622,62.309C183.764,59.118 185.388,55.268 185.388,50.724C185.388,46.146 183.799,42.296 180.622,39.14C177.479,35.949 173.525,34.388 168.793,34.388C164.027,34.388 160.072,35.949 156.895,39.14ZM160.002,41.602C162.332,39.209 165.263,37.995 168.793,37.995C172.324,37.995 175.184,39.209 177.514,41.602C179.845,43.995 181.045,47.048 181.045,50.724C181.045,54.401 179.845,57.453 177.514,59.847C175.184,62.24 172.289,63.454 168.793,63.454C165.263,63.454 162.332,62.24 160.002,59.847C157.672,57.453 156.542,54.401 156.542,50.724C156.542,47.048 157.672,43.995 160.002,41.602Z" style="fill:rgb(209,49,4);stroke:rgb(209,49,4);stroke-width:0.27px;stroke-linejoin:miter;stroke-miterlimit:4;"/>
        <path id="path18" d="M167.275,49.719L167.275,44.342L170.241,44.342C171.936,44.342 172.783,45.21 172.783,46.944C172.783,47.846 172.571,48.539 172.148,48.99C171.724,49.476 171.124,49.719 170.312,49.719L169.182,49.719L167.275,49.719ZM161.838,49.719L164.415,49.719L164.415,41.637L170.594,41.637C172.254,41.637 173.489,42.088 174.407,42.99C175.29,43.891 175.749,45.21 175.749,46.874C175.749,47.95 175.537,48.886 175.149,49.719C174.76,50.551 174.16,51.21 173.419,51.661C172.677,52.112 171.795,52.355 170.735,52.355L167.311,52.355L167.311,54.817L172.819,54.817L172.819,57.28L167.311,57.28L167.311,59.743L164.415,59.743L164.415,57.28L161.838,57.28L161.838,54.817L164.415,54.817L164.415,52.147L161.838,52.147L161.838,49.684L161.838,49.719Z" style="fill:rgb(209,49,4);stroke:rgb(241,89,39);stroke-width:0.27px;stroke-linejoin:miter;stroke-miterlimit:4;"/>
        <path id="path20" d="M166.64,33.659C163.074,34.041 160.002,35.394 157.424,37.787L157.424,44.065L157.707,44.065C158.272,42.851 159.013,41.776 159.967,40.77C160.461,40.249 160.99,39.799 161.52,39.417C163.568,37.926 165.969,37.163 168.758,37.163C171.547,37.163 173.913,37.926 175.961,39.417C176.491,39.833 177.02,40.284 177.514,40.77C178.362,41.637 179.033,42.573 179.562,43.614L179.562,38.168L179.562,37.926L179.562,37.336C177.091,35.255 174.231,34.006 170.912,33.659L166.675,33.659L166.64,33.659Z" style="fill:rgb(209,49,4);"/>
    </g>
</svg>
